<svg width="114" height="50" viewBox="0 0 114 50" fill="none" xmlns="http://www.w3.org/2000/svg">
<path d="M18.8049 19.3077V16.2029C18.8049 16.1142 18.7146 16.0004 18.5572 16.0004H15.6315C11.1542 16.0004 5.08008 17.3059 5.08008 25.0002C5.08008 32.9874 11.2228 34 15.6315 34H18.5572C18.7146 34 18.8049 33.8879 18.8049 33.7975V22.7724H11.8973V26.2154H15.362V30.7144C11.4471 30.917 8.54477 29.275 8.54477 25.0002C8.54477 19.4433 13.1794 19.219 15.362 19.3077H18.8049Z" fill="#8027C4"/>
<path d="M36.1046 33.7305L29.2639 16.1359C29.197 15.9568 28.8823 15.9568 28.8137 16.1359L21.9964 33.7305C21.9295 33.8644 22.0199 34 22.2224 34H25.3038C25.3942 34 25.5063 33.9548 25.5298 33.8644L29.0396 23.8302L32.5947 33.8644C32.6165 33.9548 32.7286 34 32.7972 34H35.9021C36.0594 34 36.1715 33.8644 36.1046 33.7305Z" fill="#8027C4"/>
<path d="M55.4052 29.6583H58.8264V16.2029C58.8264 16.1142 58.736 16.0004 58.5786 16.0004H55.6077C55.519 16.0004 55.4052 16.069 55.3617 16.1359L49.219 29.3202L42.7616 16.1359C42.7398 16.069 42.6042 16.0004 42.5373 16.0004H39.5212C39.3638 16.0004 39.2969 16.1142 39.2969 16.2029V33.7975C39.2969 33.8879 39.3638 34 39.5212 34H42.4921C42.626 34 42.7398 33.8879 42.7398 33.7975V23.6963L47.6222 33.1447C47.6439 33.2134 47.7795 33.2803 47.8465 33.2803H50.6132C50.6818 33.2803 50.794 33.2134 50.8157 33.1447L55.4052 23.9424V29.6583Z" fill="#8027C4"/>
<path d="M71.0629 21.3564C71.0629 23.3364 68.4084 23.3364 68.4084 23.3364H65.7086V19.219H68.4084C68.4084 19.219 71.0629 19.1955 71.0629 21.3564ZM74.5059 21.1538C74.5059 15.8664 68.4084 16.0003 68.4084 16.0003H62.5368C62.4012 16.0003 62.2891 16.1141 62.2891 16.2028V26.6873H68.4084C68.4084 26.6873 71.3107 26.5534 71.3107 28.6674C71.3107 30.3997 69.5331 30.7144 68.4084 30.7144H65.732V34H68.4084C69.6235 34 74.7536 33.7757 74.7536 28.7578C74.7536 28.7578 74.8657 25.9676 72.0086 25.0002C73.3811 24.4378 74.5059 23.246 74.5059 21.1538Z" fill="#8027C4"/>
<path d="M91.1301 16.0002H88.2044C88.047 16.0002 87.9567 16.1141 87.9567 16.2028V27.9928C87.9567 29.8155 86.2929 30.6925 84.6058 30.6925C82.9404 30.6925 81.4557 29.7469 81.2532 27.971V19.2641H77.8555V27.9928C77.8555 31.7052 80.8934 33.9999 84.6058 33.9999C88.4303 33.9999 91.3544 31.7956 91.3544 27.9928V16.2028C91.3544 16.1141 91.2423 16.0002 91.1301 16.0002Z" fill="#8027C4"/>
<path d="M107.777 16.0002H104.851C104.694 16.0002 104.603 16.1141 104.603 16.2028V27.9928C104.603 29.8155 102.939 30.6925 101.252 30.6925C99.5869 30.6925 98.1022 29.7469 97.8997 27.971V19.2641H94.502V27.9928C94.502 31.7052 97.5398 33.9999 101.252 33.9999C105.077 33.9999 108.001 31.7956 108.001 27.9928V16.2028C108.001 16.1141 107.889 16.0002 107.777 16.0002Z" fill="#8027C4"/>
</svg>
