<svg width="80" height="80" viewBox="0 0 80 80" fill="none" xmlns="http://www.w3.org/2000/svg">
<g filter="url(#filter0_d_391_15497)">
<path d="M5 29.8889C5 21.177 5 16.821 6.69545 13.4935C8.18682 10.5665 10.5665 8.18682 13.4935 6.69545C16.821 5 21.177 5 29.8889 5H50.1111C58.823 5 63.179 5 66.5065 6.69545C69.4335 8.18682 71.8132 10.5665 73.3045 13.4935C75 16.821 75 21.177 75 29.8889V50.1111C75 58.823 75 63.179 73.3045 66.5065C71.8132 69.4335 69.4335 71.8132 66.5065 73.3045C63.179 75 58.823 75 50.1111 75H29.8889C21.177 75 16.821 75 13.4935 73.3045C10.5665 71.8132 8.18682 69.4335 6.69545 66.5065C5 63.179 5 58.823 5 50.1111V29.8889Z" fill="white"/>
<path d="M55.1274 21.3076L40.1596 32.9887L24.8496 21.3076V21.3108L24.8681 21.3266V37.6832L39.9869 49.6168L55.1274 38.1441V21.3076Z" fill="#EA4335"/>
<path d="M59.0597 18.466L55.1289 21.3073V38.1438L67.4977 28.6474V22.9269C67.4977 22.9269 65.9963 14.7564 59.0597 18.466Z" fill="#FBBC05"/>
<path d="M55.1289 38.1443V59.9816H64.609C64.609 59.9816 67.3066 59.7038 67.5008 56.6288V28.6479L55.1289 38.1443Z" fill="#34A853"/>
<path d="M24.8688 59.9999V37.6828L24.8496 37.667L24.8688 59.9999Z" fill="#C5221F"/>
<path d="M24.8503 21.3108L20.9411 18.4853C14.0045 14.7758 12.5 22.943 12.5 22.943V28.6636L24.8503 37.6675V21.3108Z" fill="#C5221F"/>
<path d="M24.8496 21.3105V37.6672L24.8688 37.683V21.3263L24.8496 21.3105Z" fill="#C5221F"/>
<path d="M12.5 28.6665V56.6474C12.6911 59.7255 15.3918 60.0001 15.3918 60.0001H24.8719L24.8503 37.6672L12.5 28.6665Z" fill="#4285F4"/>
</g>
<defs>
<filter id="filter0_d_391_15497" x="-2" y="-1" width="84" height="84" filterUnits="userSpaceOnUse" color-interpolation-filters="sRGB">
<feFlood flood-opacity="0" result="BackgroundImageFix"/>
<feColorMatrix in="SourceAlpha" type="matrix" values="0 0 0 0 0 0 0 0 0 0 0 0 0 0 0 0 0 0 127 0" result="hardAlpha"/>
<feOffset dy="1"/>
<feGaussianBlur stdDeviation="1"/>
<feColorMatrix type="matrix" values="0 0 0 0 0.0627451 0 0 0 0 0.0941176 0 0 0 0 0.156863 0 0 0 0.05 0"/>
<feBlend mode="normal" in2="BackgroundImageFix" result="effect1_dropShadow_391_15497"/>
<feBlend mode="normal" in="SourceGraphic" in2="effect1_dropShadow_391_15497" result="shape"/>
</filter>
</defs>
</svg>
