<svg width="80" height="80" viewBox="0 0 80 80" fill="none" xmlns="http://www.w3.org/2000/svg">
<g filter="url(#filter0_d_391_15496)">
<path d="M5 29.8889C5 21.177 5 16.821 6.69545 13.4935C8.18682 10.5665 10.5665 8.18682 13.4935 6.69545C16.821 5 21.177 5 29.8889 5H50.1111C58.823 5 63.179 5 66.5065 6.69545C69.4335 8.18682 71.8132 10.5665 73.3045 13.4935C75 16.821 75 21.177 75 29.8889V50.1111C75 58.823 75 63.179 73.3045 66.5065C71.8132 69.4335 69.4335 71.8132 66.5065 73.3045C63.179 75 58.823 75 50.1111 75H29.8889C21.177 75 16.821 75 13.4935 73.3045C10.5665 71.8132 8.18682 69.4335 6.69545 66.5065C5 63.179 5 58.823 5 50.1111V29.8889Z" fill="white"/>
<path d="M12.5 58.8999C12.5 60.8889 14.1249 62.4999 16.127 62.4999H16.1792C14.1464 62.4999 12.5 60.8889 12.5 58.8999Z" fill="#FBBC05"/>
<path d="M43.6689 30.9999V40.3989L56.3405 30.1779V21.1C56.3405 19.111 54.7156 17.5 52.7135 17.5H25.2609L25.2363 30.9999H43.6689Z" fill="#FBBC05"/>
<path d="M43.6683 49.8018H25.2051L25.1836 62.5007H52.7129C54.718 62.5007 56.3399 60.8897 56.3399 58.9007V50.7048L43.6683 40.4028V49.8018V49.8018Z" fill="#34A853"/>
<path d="M25.2605 17.5L12.5 30.9999H25.2391L25.2605 17.5Z" fill="#EA4335"/>
<path d="M12.5 49.8008V58.8997C12.5 60.8887 14.1464 62.4997 16.1792 62.4997H25.1839L25.2054 49.8008H12.5V49.8008Z" fill="#1967D2"/>
<path d="M25.2391 31H12.5V49.8009H25.2054L25.2391 31Z" fill="#4285F4"/>
<path d="M67.4824 55.6996V24.7997C66.768 20.6988 62.2702 25.3997 62.2702 25.3997L56.3438 30.1787V50.7016L64.8273 57.5986C67.8902 58.0006 67.4824 55.6996 67.4824 55.6996Z" fill="#34A853"/>
<path d="M43.668 40.3991L56.3427 50.7041V30.1812L43.668 40.3991Z" fill="#188038"/>
</g>
<defs>
<filter id="filter0_d_391_15496" x="-2" y="-1" width="84" height="84" filterUnits="userSpaceOnUse" color-interpolation-filters="sRGB">
<feFlood flood-opacity="0" result="BackgroundImageFix"/>
<feColorMatrix in="SourceAlpha" type="matrix" values="0 0 0 0 0 0 0 0 0 0 0 0 0 0 0 0 0 0 127 0" result="hardAlpha"/>
<feOffset dy="1"/>
<feGaussianBlur stdDeviation="1"/>
<feColorMatrix type="matrix" values="0 0 0 0 0.0627451 0 0 0 0 0.0941176 0 0 0 0 0.156863 0 0 0 0.05 0"/>
<feBlend mode="normal" in2="BackgroundImageFix" result="effect1_dropShadow_391_15496"/>
<feBlend mode="normal" in="SourceGraphic" in2="effect1_dropShadow_391_15496" result="shape"/>
</filter>
</defs>
</svg>
