<svg width="25" height="36" viewBox="0 0 25 36" fill="none" xmlns="http://www.w3.org/2000/svg">
<path d="M17.6239 10.7127C17.6239 14.6729 12.3148 14.6729 12.3148 14.6729H6.91518V6.43793H12.3148C12.3148 6.43793 17.6239 6.39106 17.6239 10.7127ZM24.5098 10.3077C24.5098 -0.267179 12.3148 0.000622353 12.3148 0.000622353H0.571607C0.300457 0.000622353 0.0761719 0.228254 0.0761719 0.405674V21.3746H12.3148C12.3148 21.3746 18.1194 21.1068 18.1194 25.3347C18.1194 28.7994 14.5643 29.4288 12.3148 29.4288H6.96205V36H12.3148C14.7451 36 25.0052 35.5514 25.0052 25.5155C25.0052 25.5155 25.2295 19.9352 19.5153 18.0003C22.2603 16.8755 24.5098 14.4921 24.5098 10.3077Z" fill="#8027C4"/>
</svg>
