<svg width="43" height="40" viewBox="0 0 43 40" fill="none" xmlns="http://www.w3.org/2000/svg">
<path d="M35.2884 30.2742H42.6459V1.38406C42.6459 1.19359 42.4515 0.949219 42.1131 0.949219H35.7239C35.5332 0.949219 35.2884 1.09656 35.1948 1.24031L21.9845 29.5483L8.09752 1.24031C8.05073 1.09656 7.75916 0.949219 7.61518 0.949219H1.12882C0.790466 0.949219 0.646484 1.19359 0.646484 1.38406V39.1615C0.646484 39.3556 0.790466 39.5964 1.12882 39.5964H7.51799C7.80596 39.5964 8.05073 39.3556 8.05073 39.1615V17.4733L18.5506 37.76C18.5974 37.9073 18.8889 38.0511 19.0329 38.0511H24.9829C25.1305 38.0511 25.3717 37.9073 25.4185 37.76L35.2884 18.0015V30.2742Z" fill="#8027C4"/>
</svg>
