<svg width="40" height="36" viewBox="0 0 40 36" fill="none" xmlns="http://www.w3.org/2000/svg">
<path d="M32.3104 27.3166H39.1527V0.405783C39.1527 0.228364 38.972 0.000732422 38.6573 0.000732422H32.7154C32.538 0.000732422 32.3104 0.137981 32.2233 0.271882L19.9379 26.6404L7.02314 0.271882C6.97962 0.137981 6.70847 0.000732422 6.57457 0.000732422H0.542319C0.227651 0.000732422 0.09375 0.228364 0.09375 0.405783V35.595C0.09375 35.7758 0.227651 36.0001 0.542319 36.0001H6.48418C6.75199 36.0001 6.97962 35.7758 6.97962 35.595V15.3927L16.7444 34.2895C16.7879 34.4267 17.059 34.5606 17.1929 34.5606H22.7264C22.8636 34.5606 23.0879 34.4267 23.1314 34.2895L32.3104 15.8848V27.3166Z" fill="#8027C4"/>
</svg>
