<svg width="27" height="40" viewBox="0 0 27 40" fill="none" xmlns="http://www.w3.org/2000/svg">
<path d="M18.9586 12.4494C18.9586 16.7008 13.2498 16.7008 13.2498 16.7008H7.4437V7.86018H13.2498C13.2498 7.86018 18.9586 7.80987 18.9586 12.4494ZM26.3629 12.0146C26.3629 0.6619 13.2498 0.949399 13.2498 0.949399H0.622575C0.331013 0.949399 0.0898438 1.19377 0.0898438 1.38424V23.8955H13.2498C13.2498 23.8955 19.4914 23.608 19.4914 28.1469C19.4914 31.8664 15.6686 32.5421 13.2498 32.5421H7.49409V39.5966H13.2498C15.863 39.5966 26.8956 39.115 26.8956 28.341C26.8956 28.341 27.1368 22.3502 20.9924 20.273C23.944 19.0655 26.3629 16.5067 26.3629 12.0146Z" fill="#8027C4"/>
</svg>
