<svg width="17" height="16" viewBox="0 0 17 16" fill="none" xmlns="http://www.w3.org/2000/svg">
<path d="M6.56065 6C6.71739 5.55444 7.02675 5.17874 7.43395 4.93942C7.84116 4.7001 8.31991 4.61262 8.78544 4.69247C9.25096 4.77232 9.6732 5.01435 9.97737 5.37568C10.2815 5.73702 10.448 6.19435 10.4473 6.66667C10.4473 8 8.44732 8.66667 8.44732 8.66667M8.50065 11.3333H8.50732M15.1673 8C15.1673 11.6819 12.1826 14.6667 8.50065 14.6667C4.81875 14.6667 1.83398 11.6819 1.83398 8C1.83398 4.3181 4.81875 1.33333 8.50065 1.33333C12.1826 1.33333 15.1673 4.3181 15.1673 8Z" stroke="#98A2B3" stroke-width="1.33333" stroke-linecap="round" stroke-linejoin="round"/>
</svg>
